PathFileType	4	(X/Y/Z)	 s06c0401.trc
DataRate	CameraRate	NumFrames	NumMarkers	Units	OrigDataRate	OrigDataStartFrame	OrigNumFrames
200	200	7	48	mm	200	1001	2000
Frame#	Time	racr			lacr			c7			jug			rlel			rdr			llel			ldr			s2			lic			ric			lasi			rasi			rpsi			lpsi			rgt			lgt			rth1			rth2			rth3			rth4			rlfc			rmfc			rsh1			rsh2			rsh3			rsh4			rlmal			rcal			rtoe			rmt5			lth1			lth2			lth4			lth3			llfc			lmfc			llmal			lcal			lmt5			lsh1			lsh2			lsh3			lsh4			ltoe			SBIKE			LBIKE			RBIKE			
		X1	Y1	Z1	X2	Y2	Z2	X3	Y3	Z3	X4	Y4	Z4	X5	Y5	Z5	X6	Y6	Z6	X7	Y7	Z7	X8	Y8	Z8	X9	Y9	Z9	X10	Y10	Z10	X11	Y11	Z11	X12	Y12	Z12	X13	Y13	Z13	X14	Y14	Z14	X15	Y15	Z15	X16	Y16	Z16	X17	Y17	Z17	X18	Y18	Z18	X19	Y19	Z19	X20	Y20	Z20	X21	Y21	Z21	X22	Y22	Z22	X23	Y23	Z23	X24	Y24	Z24	X25	Y25	Z25	X26	Y26	Z26	X27	Y27	Z27	X28	Y28	Z28	X29	Y29	Z29	X30	Y30	Z30	X31	Y31	Z31	X32	Y32	Z32	X33	Y33	Z33	X34	Y34	Z34	X35	Y35	Z35	X36	Y36	Z36	X37	Y37	Z37	X38	Y38	Z38	X39	Y39	Z39	X40	Y40	Z40	X41	Y41	Z41	X42	Y42	Z42	X43	Y43	Z43	X44	Y44	Z44	X45	Y45	Z45	X46	Y46	Z46	X47	Y47	Z47	X48	Y48	Z48	
1001	5.0050	753.359506	1128.616605	-32.258826	748.197289	1113.773373	-363.559733	800.829103	1231.764945	-195.446629	724.885201	1062.912915	-184.818104	550.479037	1025.851808	118.918454	660.907189	925.913313	-32.854059	526.604843	1044.488556	-518.491463	659.354890	929.547956	-410.633330	225.422714	1222.669718	-205.128817	374.990459	1140.082679	-375.231391	348.533365	1166.362169	-48.148069	376.785898	1084.648513	-341.017872	365.279189	1113.592354	-80.950841	272.083198	1256.597051	-182.535525	268.611534	1246.392270	-243.235385	335.486262	1118.872151	-10.958819	308.861605	1072.623409	-404.404432	424.404012	1032.751179	-19.118606	506.858958	991.201200	-33.791606	552.072138	918.119748	-40.260045	524.432295	1015.355958	-57.670609	595.086729	836.973489	-68.566056	575.604006	819.907515	-184.617914	511.649390	747.407134	-40.677622	455.763074	681.944484	-56.748489	375.680623	646.981567	-50.225379	468.415947	667.155653	-92.841197	297.288183	599.747620	-51.089828	224.186268	609.535110	-94.523608	426.057485	421.568023	-106.217794	341.917737	467.354109	-32.801864	283.972795	942.420238	-424.662701	304.694688	857.827294	-422.240773	341.719398	856.870380	-415.020769	279.578394	772.264857	-410.095871	262.488866	657.024988	-390.002897	272.018756	636.494785	-270.809973	116.119794	317.622171	-370.784259	58.601874	340.776003	-322.087201	153.484090	171.436370	-404.390092	217.400018	558.016467	-409.428427	207.246955	473.025398	-392.129403	155.341241	402.338161	-390.030316	236.472508	465.164580	-366.775095	216.299798	107.630358	-350.589975	-203.695657	871.029414	-211.961791	-48.905728	84.538142	-419.284058	-50.407227	80.271273	-22.033357	
1002	5.0100	753.663451	1127.827477	-31.423325	748.410112	1113.286270	-362.579845	801.434233	1231.585718	-194.448976	724.969026	1062.805299	-184.003663	550.827825	1025.674103	119.346383	661.018983	926.348255	-32.403727	527.055982	1045.538128	-518.329505	659.206300	929.560501	-411.021866	226.546944	1226.278894	-205.092210	375.251294	1142.085317	-374.717341	348.843295	1169.301382	-47.611477	376.395121	1086.619600	-340.748391	364.757523	1116.130454	-80.168613	273.470947	1259.899934	-182.302666	269.843255	1249.595676	-243.205172	334.836777	1122.264157	-10.452688	308.940470	1075.231621	-403.909597	422.383845	1034.339221	-18.057460	504.048327	991.342012	-33.202868	549.784154	918.815789	-39.041088	521.659983	1015.417007	-57.531653	591.828088	835.175768	-67.381461	571.306629	818.239415	-183.280921	508.757608	744.772434	-39.717089	454.417245	677.896988	-55.617137	375.296338	641.200011	-49.325007	467.737229	663.309701	-91.551387	298.367090	591.545476	-50.446016	224.523035	598.402783	-93.805498	435.078638	420.260310	-106.326739	348.989608	461.784215	-32.270350	286.375657	944.137349	-424.010288	308.879926	860.044915	-421.286792	345.832307	859.795130	-413.696579	285.226416	773.954859	-409.731584	269.148103	658.615478	-388.882099	275.892784	638.812462	-269.928953	109.464010	324.660400	-369.743754	51.805031	348.493508	-321.951125	144.882146	178.111617	-403.882695	221.811958	560.596319	-408.408249	207.635952	476.316620	-390.500935	152.640268	407.910889	-388.940481	235.850514	467.497998	-364.291933	207.018313	113.623886	-350.234178	-203.596379	871.067578	-211.741649	-48.921623	84.654491	-419.226989	-50.387462	80.299908	-21.989640	
1003	5.0150	754.219645	1127.296389	-30.649508	748.650132	1112.951425	-361.711465	801.993991	1231.560602	-193.675666	725.141090	1062.738478	-183.477199	551.152506	1025.899910	119.746200	660.996037	926.715541	-32.134546	527.391884	1046.811449	-518.189831	658.981152	929.559214	-411.632339	227.499237	1229.586125	-203.858594	375.507039	1144.083224	-374.186636	348.871297	1172.174603	-47.076030	375.990067	1088.501997	-340.504149	365.173426	1119.158356	-79.682428	274.839275	1263.143977	-182.057172	270.816022	1252.060618	-241.022327	334.366333	1124.979915	-10.394246	308.987373	1077.699530	-403.448719	419.707038	1034.919349	-17.796357	501.107992	991.080662	-32.543808	546.382554	918.548711	-37.593557	518.523355	1014.819392	-57.162430	587.348896	834.381386	-65.036339	565.953873	815.426128	-181.478235	505.312964	741.070374	-38.043668	452.720432	672.825754	-54.362587	374.514474	634.275941	-48.374013	466.695790	658.438972	-90.035502	299.244230	582.543855	-49.720367	224.700632	586.434291	-93.175641	443.434560	418.365704	-106.330851	355.509119	455.679577	-31.733817	289.105805	945.852146	-422.977922	313.481548	862.388089	-420.121796	350.436750	862.938298	-412.229706	291.729622	775.716702	-409.404496	276.466665	660.032632	-387.740858	280.598796	641.227537	-268.805365	103.714255	332.258805	-368.979227	46.581592	357.250420	-322.229120	136.786096	185.234041	-403.380408	227.100487	563.006508	-407.427179	208.851972	479.812931	-389.078919	150.942739	413.732699	-388.089922	235.868488	470.080760	-361.842662	197.700220	119.822400	-349.431573	-203.552214	871.177795	-211.404348	-48.944743	84.785567	-419.155821	-50.411603	80.306558	-21.941987	
1004	5.0200	754.704924	1126.882310	-30.158152	748.827722	1112.866147	-361.142268	802.562335	1231.643245	-193.001950	725.292421	1062.675780	-183.299706	551.510513	1026.442690	120.027032	660.834013	927.061804	-32.035220	527.643849	1048.269976	-518.077022	658.708725	929.637414	-412.562726	228.526388	1232.741896	-203.158689	375.811410	1146.165486	-373.714976	348.901590	1174.508971	-46.682789	375.708954	1090.309959	-340.212128	365.717125	1121.727307	-79.397880	276.038273	1265.802968	-181.765103	272.169704	1254.163528	-239.039753	333.787735	1127.010798	-10.624506	309.041719	1080.014412	-403.077950	417.435368	1035.855371	-15.768625	498.348339	990.408653	-31.610059	542.188242	917.243631	-36.145815	515.100081	1013.566854	-56.531435	583.954492	830.392097	-64.836512	559.512945	811.390750	-180.289117	501.396026	736.176401	-36.359840	450.522538	666.600112	-52.952061	373.293710	626.331237	-47.442594	465.081526	652.585159	-88.489433	299.706613	572.524458	-49.124399	224.893211	573.227118	-92.866402	451.159054	415.840075	-106.192521	361.391162	448.731841	-31.533287	292.081394	947.642140	-421.645642	318.535491	864.811715	-418.686635	355.377022	866.316102	-410.603752	299.083813	777.667860	-408.852071	284.227497	661.305138	-386.632798	285.782902	643.415684	-268.252809	99.579685	340.315721	-368.790046	42.400309	366.565124	-323.165843	129.672107	192.326095	-402.815489	232.904353	565.623686	-406.229133	210.944193	483.515204	-387.545416	150.567225	419.688708	-387.471682	236.825688	473.190793	-359.504327	189.087661	125.963383	-348.494705	-203.519852	871.275305	-211.124170	-48.995016	85.036590	-419.188547	-50.410114	80.335970	-21.902595	
1005	5.0250	755.201380	1126.628906	-29.847653	748.998849	1113.068053	-360.798074	803.128015	1231.855293	-192.567523	725.356487	1062.687501	-183.453619	551.729846	1027.547200	120.509992	660.577433	927.421422	-32.177370	527.861340	1049.860755	-517.934454	658.385585	929.687719	-413.672922	229.573938	1235.131917	-202.173142	375.984716	1147.930464	-373.097529	349.629706	1175.809684	-46.732178	375.497007	1091.983100	-339.806486	364.712657	1122.492267	-79.412260	277.410679	1267.693973	-180.561082	273.217139	1256.553480	-238.790489	333.086801	1128.750033	-10.639469	309.249997	1082.188149	-402.760969	414.072529	1034.858026	-14.755587	496.079754	989.317483	-30.197254	538.286397	914.815951	-35.301143	511.467830	1011.663139	-55.607162	579.136739	826.270972	-63.232192	553.247989	806.695834	-178.237982	497.146620	730.225837	-34.402790	448.531745	659.210465	-51.443987	371.832407	617.353444	-46.475846	463.102585	645.822050	-86.885462	300.223915	561.486362	-48.518105	224.950321	559.753895	-92.282498	457.990334	412.464100	-106.009836	367.007068	440.805990	-31.761906	295.365293	949.548421	-419.908387	323.928981	867.437203	-417.009861	360.623385	869.868390	-408.814116	306.723689	779.838399	-408.078030	292.435241	662.308183	-385.451905	291.573639	645.699642	-267.738062	97.376249	348.433168	-369.146855	39.836907	376.036172	-324.168660	123.478532	199.414600	-402.233761	239.194496	568.593188	-405.520674	214.065859	487.604111	-386.310084	151.591012	425.891253	-387.405033	239.099365	476.761434	-357.746520	180.869440	131.859781	-347.068373	-203.431397	871.394568	-210.829735	-49.011883	85.165937	-419.149927	-50.423305	80.398115	-21.848581	
1006	5.0300	755.903394	1126.626162	-29.612019	749.114082	1113.699791	-360.715709	803.757427	1232.215891	-192.278797	725.465819	1062.898490	-183.851083	552.090936	1028.546094	120.678977	660.161008	927.821328	-32.569634	528.093884	1051.484733	-517.748922	658.133032	929.753334	-414.968436	230.481444	1237.211405	-201.230584	376.158845	1149.463567	-372.535885	350.153718	1176.484738	-46.676596	375.466260	1093.511905	-339.360823	364.385794	1123.087970	-79.596991	278.402278	1269.676255	-179.851746	274.183089	1258.580210	-238.503360	332.137068	1129.204688	-10.978169	309.741945	1084.194737	-402.537189	411.064359	1033.548259	-13.927429	494.612624	987.798655	-28.101028	533.442140	911.750814	-33.626456	507.704271	1009.111990	-54.358104	573.144494	821.153457	-61.283390	547.044151	801.110423	-175.851319	492.638574	723.273653	-32.252468	445.627690	651.180321	-50.000262	370.131520	607.394340	-45.534340	460.840743	638.301101	-85.396283	300.586645	549.917678	-48.083495	224.510428	545.911471	-91.650060	464.122866	408.508415	-105.783112	371.946760	432.709002	-31.534235	299.026881	951.580469	-417.918151	329.612238	870.176870	-415.060753	366.058020	873.459685	-406.752748	314.624863	782.141690	-406.795321	300.841263	663.511813	-383.984550	297.847588	647.999035	-267.218339	96.435310	356.499930	-369.894790	38.580297	385.883973	-325.284217	117.794998	206.577576	-401.592109	245.915932	571.946615	-404.783215	217.977881	491.829455	-385.237659	153.843933	431.991605	-387.536054	241.707763	480.542909	-355.723572	172.937106	137.709555	-345.769073	-203.328985	871.491922	-210.567738	-49.002180	85.277256	-419.125546	-50.425716	80.402849	-21.836341	
1007	5.0350	756.651700	1126.865059	-29.541943	749.234092	1114.608429	-360.916082	804.488934	1232.775885	-192.133650	725.830539	1063.327034	-184.271229	552.369307	1029.775611	120.874105	660.067597	928.716900	-31.552678	528.378820	1053.109392	-517.552684	657.927684	929.968735	-416.410328	231.328128	1239.002513	-201.184369	376.469776	1150.737090	-372.017879	349.959770	1177.282596	-46.992794	375.592452	1094.832282	-338.782576	363.015288	1123.630890	-79.975496	279.291196	1270.949335	-178.803241	275.029821	1260.246664	-238.171175	330.712703	1129.454548	-10.656295	310.413585	1086.023620	-402.559377	408.134775	1031.678666	-12.951917	488.381311	982.319696	-25.866559	526.294071	908.336714	-30.048929	503.887073	1005.917151	-52.752755	566.447726	815.279513	-59.537969	540.857954	794.670870	-173.067247	487.827279	715.489966	-30.084715	442.390694	642.162751	-48.656825	368.331035	596.650881	-44.559977	458.188519	630.431417	-84.022832	300.508608	538.181716	-47.424027	225.026684	531.026467	-91.894861	469.494811	403.713570	-105.345162	376.316067	423.922411	-31.457691	303.009431	953.645625	-415.894293	335.518194	873.043526	-412.910146	371.852299	877.268782	-404.531055	322.599722	784.597683	-405.097219	309.464017	664.764938	-382.399740	304.465057	650.724942	-266.592073	96.262846	364.360789	-370.701103	38.203280	395.957348	-326.415885	112.516722	213.881441	-401.120743	253.053387	575.256515	-404.087238	222.433214	496.171913	-384.401638	156.909276	438.027923	-388.055304	245.171267	484.608747	-354.305168	165.532375	143.775219	-344.880500	-203.285756	871.487148	-210.359716	-48.971068	85.314237	-419.089650	-50.406452	80.373810	-21.786265	
